HIERARCHY
ROOT Hips
{
  OFFSET 263.056 91.6644 -274.608
  CHANNELS 6 Xposition Yposition Zposition Zrotation Xrotation Yrotation
  JOINT LeftUpLeg
  {
    OFFSET 8.64259 1.95398 -2.38835
    CHANNELS 3 Zrotation Xrotation Yrotation
    JOINT LeftLeg
    {
      OFFSET 43.7702 0 0
      CHANNELS 3 Zrotation Xrotation Yrotation
      JOINT LeftFoot
      {
        OFFSET 40.6238 0 0
        CHANNELS 3 Zrotation Xrotation Yrotation
        JOINT LeftToeBase
        {
          OFFSET 12.7242 0 0
          CHANNELS 3 Zrotation Xrotation Yrotation
          End Site
          {
            OFFSET 0 0 0
          }
        }
      }
    }
  }
  JOINT RightUpLeg
  {
    OFFSET -8.2249 1.95398 -2.59336
    CHANNELS 3 Zrotation Xrotation Yrotation
    JOINT RightLeg
    {
      OFFSET 43.5653 0 0
      CHANNELS 3 Zrotation Xrotation Yrotation
      JOINT RightFoot
      {
        OFFSET 40.6238 0 0
        CHANNELS 3 Zrotation Xrotation Yrotation
        JOINT RightToeBase
        {
          OFFSET 12.7242 0 0
          CHANNELS 3 Zrotation Xrotation Yrotation
          End Site
          {
            OFFSET 0 0 0
          }
        }
      }
    }
  }
  JOINT Spine
  {
    OFFSET 0.165834 0.87714 6.61349
    CHANNELS 3 Zrotation Xrotation Yrotation
    JOINT Spine1
    {
      OFFSET 7.38963 1.71661e-005 0
      CHANNELS 3 Zrotation Xrotation Yrotation
      JOINT Spine2
      {
        OFFSET 11.9445 1.14441e-005 0
        CHANNELS 3 Zrotation Xrotation Yrotation
        JOINT Spine3
        {
          OFFSET 14.7254 4.19617e-005 0
          CHANNELS 3 Zrotation Xrotation Yrotation
          JOINT Spine4
          {
            OFFSET 10.9679 0 0
            CHANNELS 3 Zrotation Xrotation Yrotation
            JOINT RightShoulder
            {
              OFFSET 2.46616 -1.6653 3.69651
              CHANNELS 3 Zrotation Xrotation Yrotation
              JOINT RightArm
              {
                OFFSET 13.0012 0 0
                CHANNELS 3 Zrotation Xrotation Yrotation
                JOINT RightForeArm
                {
                  OFFSET 28.7848 1.52588e-005 0
                  CHANNELS 3 Zrotation Xrotation Yrotation
                  JOINT RightHand
                  {
                    OFFSET 26.5688 1.52588e-005 0
                    CHANNELS 3 Zrotation Xrotation Yrotation
                    End Site
                    {
                      OFFSET 0 0 0
                    }
                  }
                }
              }
            }
            JOINT LeftShoulder
            {
              OFFSET 2.38034 -1.29275 -3.7523
              CHANNELS 3 Zrotation Xrotation Yrotation
              JOINT LeftArm
              {
                OFFSET 16.3182 6.10352e-005 0
                CHANNELS 3 Zrotation Xrotation Yrotation
                JOINT LeftForeArm
                {
                  OFFSET 27.0901 0 0
                  CHANNELS 3 Zrotation Xrotation Yrotation
                  JOINT LeftHand
                  {
                    OFFSET 24.5451 1.52588e-005 0
                    CHANNELS 3 Zrotation Xrotation Yrotation
                    End Site
                    {
                      OFFSET 0 0 0
                    }
                  }
                }
              }
            }
            JOINT Neck
            {
              OFFSET 5.0226 -0.0266342 0
              CHANNELS 3 Zrotation Xrotation Yrotation
              JOINT Head
              {
                OFFSET 6.69364 2.86102e-005 0
                CHANNELS 3 Zrotation Xrotation Yrotation
                End Site
                {
                  OFFSET 0 0 0
                }
              }
            }
          }
        }
      }
    }
  }
}
MOTION
Frames:	11
Frame Time:	0.0416667
63.1816 79.1395 -4.50773 -87.537 -3.31999 -91.1305 179.913 45.1511 109.47 -60.467 22.7512 1.50994 54.2319 0.156093 16.3836 65.3666 33.4833 -12.2887 176.66 40.8466 91.8035 -89.5658 14.0976 -4.76906 69.9789 -9.06125 -4.63221 58.852 2.96523 5.37216 -0.104123 9.31422 -88.6262 8.23269 0.396177 2.69198 -3.44093 0.514215 2.67194 -25.954 -0.430857 2.68665 -5.94134 -0.430889 2.68663 77.6045 -52.6924 -118.273 20.8894 -10.9248 7.47476 -16.0397 -16.4618 -51.5119 -13.5298 -1.05315 4.03063 -99.546 -35.5165 58.577 -9.52526 -22.1531 4.31135 14.592 2.11103 -78.8635 27.2199 3.41203 8.77104 -1.28401 -35.1035 -12.1305 -0.42374 -33.7379 -21.6255 
62.3297 79.4127 -5.54625 -86.4654 -0.716644 -91.0278 -178.985 44.2127 110.604 -58.8671 22.7059 1.32023 53.7526 0.420326 17.9135 65.3204 34.175 -10.6629 173.926 44.3178 92.9192 -90.1578 14.864 -4.08452 69.1054 -8.70905 -4.50317 58.2872 2.43078 3.03745 -0.289252 9.2967 -88.6812 8.27323 0.00294306 2.60657 -3.40033 0.117613 2.60392 -25.9158 -0.780323 2.48711 -5.9032 -0.780325 2.48711 77.1474 -52.975 -118.804 22.3026 -14.215 11.253 -17.4823 -19.2726 -51.5122 -12.0933 -0.925462 3.71098 -98.3601 -34.7558 60.2171 -10.6797 -18.7937 2.6062 15.6866 2.06071 -80.7581 29.8565 3.93432 9.50946 -0.780298 -34.1703 -11.9114 0.875323 -32.9384 -20.6329 
61.21 80.0007 -6.91216 -85.4155 2.00478 -91.4278 -177.399 42.0926 110.966 -56.261 20.5312 1.3095 53.9712 0.778985 16.9953 64.1078 33.9048 -8.85256 171.851 47.3581 92.7006 -89.6324 16.5865 -3.59676 70.3387 -9.0874 -4.58998 57.696 3.07336 6.62047 -0.404549 9.23955 -88.7382 8.3908 -0.250859 2.51012 -3.28255 -0.140156 2.51872 -25.8007 -0.993452 2.31888 -5.78805 -0.993456 2.31887 77.537 -53.8579 -117.891 24.3025 -15.9488 15.8814 -19.6549 -19.9051 -52.944 -8.60451 -0.707325 3.06848 -98.6604 -34.5847 59.6218 -10.1262 -15.9647 4.24288 19.1981 1.75539 -84.3131 26.5964 3.35529 8.91271 0.950939 -33.6789 -11.6261 1.61574 -32.3269 -19.0093 
59.7243 80.9602 -8.80742 -85.1014 6.0802 -92.8071 -174.116 37.6335 110.621 -51.3914 20.0455 0.637231 52.1366 -0.597711 17.1759 64.8666 34.9858 -8.00455 170.994 49.9753 90.7379 -88.8738 13.9047 -3.09269 67.1239 -7.10649 -3.79666 61.6562 2.75085 3.0481 -0.52141 9.17267 -88.853 8.52826 -0.533208 2.30199 -3.14466 -0.431409 2.32321 -25.6672 -1.20027 2.0355 -5.65458 -1.20026 2.03551 78.2457 -53.0249 -117.224 27.1221 -18.1124 21.2343 -19.2596 -18.5401 -54.7691 -11.941 -0.823243 2.54389 -98.934 -35.182 59.446 -11.516 -12.0696 7.12951 19.1855 1.05137 -85.4415 26.1564 3.37318 9.19857 4.08948 -33.2541 -8.84288 1.62942 -31.9287 -17.9156 
57.7423 82.4257 -11.4105 -85.0209 11.5111 -95.1643 -169.675 30.0845 109.751 -43.3729 18.608 -0.434015 50.4001 -2.21509 15.8094 63.8862 34.7305 -6.58511 170.11 51.5316 88.4555 -86.966 12.5947 -2.34626 65.6074 -5.64394 -3.09559 64.2006 2.77405 2.12781 -0.576357 9.00808 -88.9256 8.85925 -0.671708 2.17196 -2.81338 -0.575476 2.19939 -25.3385 -1.2933 1.86984 -5.32584 -1.2933 1.86985 79.221 -52.0675 -116.209 30.2663 -19.4954 26.4255 -20.0412 -18.0762 -57.0692 -13.4202 -0.881977 2.50313 -98.8614 -36.3177 60.1078 -14.4458 -7.02206 10.4438 23.9075 2.07139 -83.8418 25.4191 3.62725 10.5715 5.91533 -31.8345 -5.82295 1.74388 -30.8442 -16.9452 
55.303 84.504 -14.8298 -84.345 17.6556 -98.3293 -165.869 19.1339 108.498 -30.5184 13.2111 -0.909979 48.8397 -4.33263 7.83184 58.586 32.0504 -0.852002 167.982 52.1506 86.8704 -83.9837 11.3919 -0.936005 68.6149 -5.59092 -2.95173 59.9214 1.81142 -0.505739 -0.550681 8.69764 -88.9823 9.48003 -0.639663 2.06578 -2.19243 -0.548156 2.09192 -24.7185 -1.23086 1.77818 -4.70586 -1.23086 1.77818 80.1858 -51.1141 -115.18 33.1163 -18.371 30.4312 -20.4231 -16.9827 -57.1182 -13.4041 -0.728837 0.930149 -98.9467 -37.7906 60.6463 -18.9084 -2.62622 13.8624 25.0779 4.4935 -78.3338 26.5369 3.87432 10.9237 6.25095 -29.7112 -3.23908 2.38613 -29.1832 -14.8898 
52.5264 86.4778 -19.117 -82.7385 23.4488 -102.368 -163.85 6.72309 106.969 -13.9473 6.66165 -0.410433 39.6838 -10.0165 -1.51435 53.045 28.2784 4.8178 165.351 52.4694 85.4558 -80.4684 10.8091 1.13809 68.0985 -4.71775 -2.51978 63.0276 3.33059 4.93989 -0.492048 8.37439 -88.9885 10.1255 -0.519378 2.05187 -1.54702 -0.42858 2.07272 -24.0724 -1.11197 1.80104 -4.05981 -1.11195 1.80106 80.3131 -51.8107 -114.728 32.8711 -18.2382 31.9151 -17.9997 -15.2603 -57.2679 -13.5001 -0.733458 1.00085 -98.4864 -38.4785 61.71 -24.1594 0.322988 16.2547 22.4405 7.35822 -70.0296 28.7285 3.96865 10.1443 5.4554 -27.2157 -2.02845 4.10397 -26.974 -11.2961 
50.0556 88.0718 -24.0053 -80.2783 28.2244 -106.057 -165.299 0.886094 105.95 -8.05272 2.83997 0.491945 31.3945 -15.1912 -7.9635 39.167 13.3444 16.9815 162.559 51.743 85.9012 -76.9914 10.4896 3.86661 70.4781 -4.94467 -2.55467 60.3869 2.94127 4.54948 -0.502164 8.12661 -89.1707 10.6222 -0.618567 1.70392 -1.04979 -0.542979 1.72948 -23.5793 -1.10202 1.43933 -3.56662 -1.10201 1.43933 78.9281 -52.4838 -116.467 30.248 -16.9727 31.5702 -18.8789 -15.2831 -57.7522 -15.2723 -0.769104 0.821305 -97.4752 -39.0465 63.609 -29.6485 2.06676 17.4758 17.2928 8.64048 -60.9237 30.6161 3.94709 9.20908 5.73599 -24.9453 0.190684 5.77996 -25.0857 -8.7 
48.0459 88.9194 -29.4449 -76.6847 33.2442 -110.842 -168.626 -2.47879 103.249 -7.417 6.76958 1.14917 29.437 -15.719 -6.09168 31.0555 1.68811 11.4171 162.529 50.3854 86.5459 -73.272 9.94576 5.40792 68.0825 -3.83202 -2.0405 58.5501 1.95701 0.217705 -0.391495 8.0425 -89.3164 10.7902 -0.464054 1.40294 -0.88139 -0.401851 1.422 -23.4125 -0.864215 1.19866 -3.3999 -0.864208 1.19866 78.8093 -54.433 -115.874 24.4689 -15.3652 28.0509 -18.4974 -13.1939 -58.8157 -17.8117 -0.833516 0.524437 -97.4487 -39.5367 63.8555 -34.5327 2.26038 19.0396 13.2087 8.13943 -54.5835 32.5496 4.07598 8.82305 7.97964 -22.898 2.50734 7.28355 -23.4437 -7.11796 
46.278 88.4236 -34.7187 -72.1009 39.4211 -115.329 -171.218 0.492401 100.293 -19.1264 11.2482 1.4953 36.3768 -11.9242 -2.1289 30.8412 1.43094 10.8486 164.495 46.334 88.5666 -68.2325 8.76055 6.03515 65.9822 -2.99666 -1.66771 54.1765 2.69573 6.96722 -0.179117 8.08271 -89.4895 10.7075 -0.121412 1.02646 -0.963832 -0.0761331 1.0308 -23.4961 -0.424299 0.942518 -3.4835 -0.424282 0.94252 78.0639 -56.071 -116.283 18.2204 -14.2843 23.1311 -19.3163 -10.7829 -63.3083 -23.3973 -1.30384 2.16329 -97.2353 -39.9571 64.3739 -39.0461 2.32383 21.528 10.3306 6.75811 -50.8062 30.567 3.72233 8.47127 10.3811 -20.7703 4.47218 8.80043 -21.7584 -6.03646 
44.675 86.6867 -40.0743 -67.4761 45.7833 -118.854 -172.56 7.60849 98.8059 -39.7688 16.4384 1.36285 42.8661 -10.3416 2.135 34.8048 6.7821 7.76812 167.76 39.8779 91.4966 -65.4738 10.169 6.07465 75.6769 -5.91669 -2.81761 53.7078 2.91617 8.72154 0.108728 8.28971 -89.7562 10.2936 0.328181 0.455939 -1.3774 0.347905 0.441048 -23.9121 0.175974 0.533491 -3.89939 0.17597 0.533477 78.04 -55.198 -116.654 14.5653 -12.0842 16.9574 -23.0976 -8.67558 -68.6216 -28.2973 -1.8618 3.60305 -97.4687 -40.9305 64.3874 -42.87 5.03428 23.7025 9.14122 8.17241 -47.3549 28.2775 3.37375 8.22408 13.3865 -18.6807 7.24601 9.8311 -20.4263 -5.3351 
